<svg xmlns="http://www.w3.org/2000/svg"  viewBox="0 0 64 64" width="512px" height="512px"><path fill="#8d6c9f" d="M39.557,24.597c-0.235,0-0.471-0.082-0.661-0.25c-0.414-0.364-0.454-0.997-0.089-1.411 l1.322-1.501c0.366-0.415,0.998-0.454,1.411-0.089c0.414,0.364,0.454,0.997,0.089,1.411l-1.322,1.501 C40.109,24.483,39.833,24.597,39.557,24.597z"/><path fill="#8d6c9f" d="M42.38,28.38c-0.379,0-0.74-0.215-0.909-0.581c-0.231-0.502-0.012-1.096,0.489-1.327l1.816-0.838 c0.504-0.231,1.096-0.013,1.327,0.489s0.012,1.096-0.489,1.327l-1.816,0.838C42.662,28.351,42.52,28.38,42.38,28.38z"/><path fill="#8d6c9f" d="M43.422,32.982c-0.546,0-0.992-0.438-1-0.985c-0.008-0.553,0.434-1.007,0.985-1.015l1.999-0.028 c0.552,0.031,1.007,0.434,1.015,0.985c0.008,0.553-0.434,1.007-0.985,1.015l-1.999,0.028 C43.432,32.982,43.427,32.982,43.422,32.982z"/><path fill="#8d6c9f" d="M44.357,38.4c-0.131,0-0.265-0.025-0.393-0.08l-1.839-0.784c-0.508-0.217-0.744-0.804-0.527-1.313 c0.217-0.508,0.807-0.744,1.313-0.527l1.839,0.784c0.508,0.217,0.744,0.804,0.527,1.313C45.115,38.172,44.745,38.4,44.357,38.4z"/><path fill="#8d6c9f" d="M41.163,42.935c-0.268,0-0.534-0.106-0.73-0.317l-1.365-1.462 c-0.377-0.403-0.355-1.036,0.048-1.413c0.405-0.377,1.037-0.356,1.413,0.048l1.365,1.462c0.377,0.403,0.355,1.036-0.048,1.413 C41.652,42.846,41.408,42.935,41.163,42.935z"/><path fill="#8d6c9f" d="M36.414,45.8c-0.414,0-0.802-0.259-0.944-0.673l-0.655-1.89c-0.182-0.521,0.095-1.091,0.617-1.271 c0.522-0.185,1.092,0.095,1.271,0.617l0.655,1.89c0.182,0.521-0.095,1.091-0.617,1.271C36.633,45.782,36.522,45.8,36.414,45.8z"/><g><path fill="#5dbc9d" d="M9.975,35.5c-1.585-0.869-2.834-1.626-3.858-2.338c1.207-0.925,2.566-1.817,3.72-2.548 c0.571,0.754,1.142,1.517,1.685,2.277C11.015,33.766,10.491,34.641,9.975,35.5z"/><path fill="#8d6c9f" d="M9.595,31.956c0.246,0.328,0.492,0.66,0.734,0.993c-0.236,0.403-0.475,0.805-0.714,1.206 c-0.642-0.364-1.221-0.708-1.747-1.037C8.446,32.712,9.034,32.32,9.595,31.956 M9.957,29.448c-0.092,0-0.186,0.025-0.268,0.077 c-1.738,1.092-3.358,2.169-4.724,3.27c-0.251,0.202-0.243,0.591,0.016,0.783c1.402,1.036,3.12,2.048,4.953,3.039 c0.073,0.039,0.152,0.058,0.23,0.058c0.162,0,0.32-0.082,0.409-0.23c0.657-1.093,1.331-2.214,1.973-3.331 c0.098-0.17,0.089-0.38-0.024-0.54c-0.692-0.98-1.432-1.964-2.167-2.931C10.257,29.515,10.108,29.448,9.957,29.448L9.957,29.448z"/><path fill="#5dbc9d" d="M16.953,20.437c0.196-0.006,0.394-0.012,0.591-0.019c-0.165,0.205-0.326,0.413-0.482,0.625 C17.026,20.841,16.99,20.639,16.953,20.437z"/><path fill="#8d6c9f" d="M18.682,19.374c-0.008,0-0.015,0-0.023,0c-0.803,0.033-1.607,0.059-2.4,0.082 c-0.267,0.008-0.459,0.249-0.41,0.512c0.153,0.814,0.299,1.636,0.433,2.461c0.044,0.269,0.267,0.422,0.494,0.422 c0.157,0,0.315-0.073,0.416-0.232c0.548-0.861,1.17-1.67,1.855-2.421C19.341,19.878,19.109,19.374,18.682,19.374L18.682,19.374z"/><path fill="#5dbc9d" d="M13.308,28.465c0.193-0.12,0.388-0.24,0.582-0.36c-0.065,0.302-0.123,0.604-0.173,0.908 C13.58,28.829,13.444,28.646,13.308,28.465z"/><path fill="#8d6c9f" d="M14.693,26.511c-0.088,0-0.18,0.024-0.267,0.079c-0.688,0.433-1.381,0.862-2.066,1.283 c-0.278,0.171-0.345,0.539-0.148,0.799c0.484,0.64,0.967,1.288,1.438,1.94c0.104,0.144,0.255,0.21,0.403,0.21 c0.237,0,0.468-0.167,0.495-0.45c0.105-1.11,0.315-2.189,0.617-3.229C15.263,26.802,14.998,26.511,14.693,26.511L14.693,26.511z"/><path fill="#5dbc9d" d="M4.208,29.524c0.159-1.796,0.489-3.566,0.986-5.287c0.696,1.095,1.463,2.163,2.178,3.125 C6.142,28.151,5.109,28.856,4.208,29.524z"/><path fill="#8d6c9f" d="M5.629,26.667c0.104,0.146,0.207,0.291,0.311,0.434c-0.152,0.101-0.301,0.2-0.448,0.298 C5.535,27.154,5.58,26.91,5.629,26.667 M5.048,22.533c-0.201,0-0.401,0.116-0.474,0.336c-0.812,2.44-1.308,5.024-1.44,7.704 c-0.015,0.304,0.239,0.521,0.506,0.521c0.104,0,0.209-0.033,0.302-0.106c1.32-1.046,2.817-2.056,4.42-3.071 c0.246-0.156,0.308-0.49,0.133-0.723c-1.131-1.509-2.18-2.979-3.021-4.419C5.378,22.612,5.212,22.533,5.048,22.533L5.048,22.533z"/><path fill="#5dbc9d" d="M13.69,44.862c-1.512-0.127-2.887-0.281-4.104-0.46c0.492-1.008,1.1-2.126,1.904-3.509l2.523,1.288 C13.892,43.077,13.783,43.976,13.69,44.862z"/><path fill="#8d6c9f" d="M11.884,42.217l0.166,0.085l0.233,0.119c0.216,0.11,0.432,0.22,0.647,0.329 c-0.044,0.343-0.086,0.686-0.126,1.028c-0.584-0.056-1.145-0.116-1.682-0.181C11.352,43.167,11.604,42.71,11.884,42.217 M11.301,39.735c-0.173,0-0.342,0.09-0.435,0.248c-0.929,1.581-1.784,3.114-2.473,4.6c-0.139,0.3,0.047,0.651,0.373,0.704 c1.676,0.272,3.515,0.469,5.334,0.611c0.013,0.001,0.026,0.001,0.038,0.001c0.256,0,0.473-0.2,0.498-0.459 c0.136-1.394,0.291-2.584,0.418-3.476c0.03-0.211-0.075-0.413-0.265-0.51c-0.526-0.27-1.061-0.543-1.6-0.817 c-0.553-0.282-1.108-0.564-1.662-0.849C11.455,39.752,11.378,39.735,11.301,39.735L11.301,39.735z"/><path fill="#5dbc9d" d="M10.835,25.202c-1.025-1.37-2.044-2.796-2.819-4.154c1.588-0.282,3.292-0.402,4.827-0.474 c0.17,0.896,0.366,1.973,0.534,3.052c-0.23,0.141-0.464,0.276-0.698,0.413c-0.54,0.315-1.098,0.643-1.637,1.021 C10.973,25.109,10.903,25.156,10.835,25.202z"/><path fill="#8d6c9f" d="M12.02,21.618c0.088,0.483,0.177,0.986,0.261,1.495c-0.036,0.021-0.073,0.043-0.109,0.064 c-0.361,0.211-0.731,0.428-1.102,0.663c-0.492-0.673-0.971-1.352-1.408-2.022C10.45,21.726,11.248,21.664,12.02,21.618 M13.251,19.555c-0.007,0-0.014,0-0.021,0c-2.189,0.093-4.257,0.253-6.09,0.645c-0.318,0.068-0.488,0.426-0.337,0.714 c0.876,1.672,2.142,3.443,3.531,5.287c0.09,0.12,0.229,0.183,0.37,0.183c0.084,0,0.168-0.022,0.244-0.069 c0.224-0.138,0.448-0.28,0.671-0.437c0.823-0.579,1.716-1.04,2.567-1.577c0.17-0.107,0.259-0.304,0.23-0.502 c-0.192-1.282-0.428-2.57-0.671-3.839C13.699,19.724,13.49,19.555,13.251,19.555L13.251,19.555z"/><path fill="#5dbc9d" d="M6.073,42.358c-0.691-1.731-1.205-3.527-1.535-5.362c0.956,0.629,2.051,1.281,3.354,2 C7.165,40.253,6.572,41.35,6.073,42.358z"/><path fill="#8d6c9f" d="M6.035,39.094c0.16,0.093,0.323,0.187,0.49,0.282c-0.092,0.164-0.182,0.325-0.269,0.484 C6.178,39.605,6.104,39.35,6.035,39.094 M3.865,35.428c-0.281,0-0.543,0.246-0.5,0.564c0.377,2.742,1.138,5.36,2.228,7.801 c0.086,0.193,0.265,0.289,0.445,0.289c0.186,0,0.373-0.101,0.464-0.299c0.708-1.545,1.568-3.114,2.511-4.725 c0.142-0.243,0.055-0.557-0.192-0.692c-1.693-0.92-3.295-1.865-4.675-2.847C4.058,35.456,3.961,35.428,3.865,35.428L3.865,35.428z"/><path fill="#5dbc9d" d="M16.18,16.392c-0.348-1.847-0.607-3.422-0.729-4.858c1.27,0.393,2.701,0.913,4.505,1.635 c-0.181,0.636-0.876,3.125-0.876,3.125C18.115,16.336,17.138,16.364,16.18,16.392z"/><path fill="#8d6c9f" d="M16.619,12.974c0.649,0.228,1.351,0.489,2.128,0.792c-0.095,0.338-0.189,0.676-0.283,1.013 l-0.047,0.168l-0.105,0.377c-0.434,0.016-0.871,0.03-1.305,0.043C16.853,14.513,16.722,13.72,16.619,12.974 M14.898,10.346 c-0.274,0-0.512,0.231-0.497,0.521c0.097,1.833,0.445,3.871,0.851,6.007c0.058,0.305,0.322,0.526,0.63,0.526 c0.006,0,0.012,0,0.018,0c1.182-0.033,2.4-0.067,3.591-0.124c0.213-0.01,0.394-0.153,0.452-0.359 c0.133-0.472,0.266-0.951,0.401-1.434c0.229-0.822,0.459-1.648,0.696-2.472c0.071-0.246-0.056-0.507-0.293-0.603 c-1.954-0.79-3.894-1.521-5.712-2.043C14.989,10.352,14.943,10.346,14.898,10.346L14.898,10.346z"/><g><path fill="#5dbc9d" d="M8.559,16.859c0.874-1.347,1.866-2.621,2.963-3.806c0.146,1.191,0.349,2.392,0.55,3.489 C10.739,16.618,9.592,16.722,8.559,16.859z"/><path fill="#8d6c9f" d="M11.899,11.435c-0.122,0-0.246,0.045-0.345,0.144c-1.698,1.7-3.188,3.608-4.423,5.686 c-0.199,0.335,0.059,0.753,0.427,0.753c0.028,0,0.056-0.002,0.085-0.007c1.596-0.273,3.307-0.413,5.048-0.498 c0.303-0.015,0.523-0.294,0.467-0.592c-0.329-1.75-0.614-3.439-0.755-5.033C12.378,11.611,12.141,11.435,11.899,11.435 L11.899,11.435z"/></g><g><path fill="#5dbc9d" d="M21.135,9.26c-1.266-0.501-2.37-0.91-3.382-1.252c1.482-0.883,3.044-1.626,4.663-2.22 C21.978,6.838,21.555,7.986,21.135,9.26z"/><path fill="#8d6c9f" d="M20.644,7.607c-0.04,0.113-0.08,0.227-0.121,0.342c-0.111-0.043-0.221-0.085-0.33-0.126 C20.343,7.749,20.493,7.677,20.644,7.607 M23.335,4.443c-0.049,0-0.101,0.008-0.153,0.024c-2.454,0.787-4.764,1.892-6.883,3.268 c-0.355,0.23-0.268,0.77,0.136,0.896c1.571,0.49,3.196,1.101,4.828,1.756c0.061,0.024,0.124,0.036,0.185,0.036 c0.21,0,0.406-0.134,0.474-0.347c0.549-1.717,1.157-3.375,1.858-4.914C23.937,4.817,23.678,4.443,23.335,4.443L23.335,4.443z"/></g><g><path fill="#5dbc9d" d="M13.306,52.742c-1.428-1.289-2.716-2.717-3.847-4.263c1.188,0.17,2.511,0.316,3.925,0.436 C13.338,50.029,13.311,51.398,13.306,52.742z"/><path fill="#8d6c9f" d="M11.774,49.769c0.191,0.02,0.383,0.039,0.577,0.057c-0.005,0.184-0.01,0.372-0.015,0.563 C12.146,50.185,11.958,49.978,11.774,49.769 M8.379,47.312c-0.381,0-0.639,0.44-0.415,0.774c1.541,2.302,3.406,4.369,5.526,6.14 c0.095,0.079,0.204,0.114,0.311,0.114c0.26,0,0.508-0.208,0.507-0.508c-0.012-1.92,0.027-3.954,0.097-5.354 c0.013-0.271-0.188-0.501-0.459-0.522c-1.867-0.147-3.752-0.355-5.484-0.638C8.433,47.315,8.406,47.312,8.379,47.312L8.379,47.312 z"/></g><g><path fill="#5dbc9d" d="M32.026,59.953c-5.174,0-10.222-1.429-14.616-4.135c-0.069-2.167-0.037-4.877,0.033-6.647 c2.86,0.119,6.729,0.148,7.884,0.154c2.158,0.837,4.412,1.261,6.702,1.261c1,0,2.014-0.083,3.014-0.245 c8.181-1.332,14.685-8.276,15.466-16.513c0.504-5.307-1.181-10.386-4.743-14.302c-3.513-3.862-8.521-6.077-13.738-6.077 c-0.22,0-0.441,0.005-0.669,0.015l2.485-3.874c0.401-0.625,0.278-1.463-0.285-1.948l-4.03-3.445 c0.836-0.076,1.673-0.114,2.499-0.114c7.787,0,15.016,3.126,20.354,8.801c5.333,5.671,8.007,13.094,7.527,20.899 c-0.854,13.921-12.44,25.399-26.378,26.131C33.026,59.94,32.524,59.953,32.026,59.953z"/><path fill="#8d6c9f" d="M32.104,5.082c7.479,0.021,14.42,3.032,19.549,8.486c5.143,5.468,7.72,12.625,7.258,20.153 c-0.824,13.421-11.995,24.488-25.433,25.194c-0.482,0.025-0.97,0.038-1.451,0.038c-4.809,0-9.505-1.28-13.633-3.709 c-0.039-1.647-0.025-3.527,0.015-5.037c2.591,0.085,5.552,0.11,6.73,0.117c2.219,0.837,4.534,1.262,6.888,1.262 c1.054,0,2.123-0.087,3.176-0.258c8.761-1.425,15.465-8.583,16.301-17.405c0.53-5.591-1.245-10.942-4.999-15.068 c-3.444-3.786-8.25-6.07-13.33-6.37l1.51-2.354c0.671-1.045,0.464-2.443-0.48-3.25L32.104,5.082 M32.027,3.082 c-1.279,0-2.537,0.087-3.772,0.25c-0.425,0.056-0.577,0.598-0.251,0.876L32.906,8.4c0.19,0.162,0.231,0.44,0.096,0.65l-3.028,4.72 c-0.214,0.334,0.027,0.767,0.41,0.767c0.017,0,0.035-0.001,0.053-0.003c0.523-0.053,1.052-0.085,1.59-0.085 c10.269,0,18.48,8.81,17.486,19.284c-0.745,7.855-6.843,14.353-14.631,15.62c-0.967,0.157-1.92,0.232-2.855,0.232 c-2.302,0-4.494-0.455-6.508-1.26c-1.49-0.006-5.669-0.041-8.536-0.176c-0.008,0-0.016-0.001-0.024-0.001 c-0.264,0-0.479,0.204-0.492,0.47c-0.096,1.954-0.132,5.184-0.047,7.502c0.006,0.168,0.095,0.316,0.237,0.406 c4.454,2.8,9.721,4.425,15.37,4.425c0.515,0,1.034-0.014,1.555-0.041c14.537-0.764,26.432-12.538,27.324-27.068 C61.939,17.036,48.613,3.082,32.027,3.082L32.027,3.082z"/></g><g><path fill="#5dbc9d" d="M13.58,37.394c0.154-0.256,0.309-0.515,0.462-0.773c0.104,0.399,0.221,0.796,0.351,1.188 L13.58,37.394z"/><path fill="#8d6c9f" d="M14.258,34.764c-0.164,0-0.33,0.079-0.43,0.249c-0.418,0.716-0.843,1.428-1.264,2.129 c-0.019,0.031-0.046,0.077-0.078,0.13c-0.124,0.206-0.098,0.634,0.204,0.789c0.437,0.224,1.052,0.538,1.437,0.734 c0.452,0.23,0.898,0.458,1.339,0.684c0.068,0.035,0.138,0.051,0.203,0.051c0.226,0,0.404-0.183,0.31-0.394 c-0.559-1.253-0.98-2.581-1.234-3.968C14.697,34.908,14.479,34.764,14.258,34.764L14.258,34.764z"/></g><g><path fill="#5dbc9d" d="M17.753,45.115c0.041-0.387,0.083-0.754,0.125-1.1c0.334,0.394,0.686,0.774,1.053,1.14 C18.526,45.144,18.131,45.13,17.753,45.115z"/><path fill="#8d6c9f" d="M17.536,42.271c-0.231,0-0.46,0.16-0.497,0.43c-0.107,0.78-0.226,1.742-0.335,2.837 c-0.028,0.284,0.182,0.539,0.467,0.553c0.93,0.043,2.002,0.075,3.073,0.099c0.004,0,0.008,0,0.013,0 c0.458,0,0.674-0.569,0.324-0.87c-0.986-0.849-1.877-1.804-2.654-2.851C17.824,42.333,17.679,42.271,17.536,42.271L17.536,42.271z"/></g><g><path fill="#5dbc9d" d="M27.536,11.891c-0.848-0.342-1.723-0.705-2.628-1.084c0.496-1.541,0.971-2.827,1.462-3.96 l2.842,2.43L27.536,11.891z"/><path fill="#8d6c9f" d="M26.773,8.506L27.9,9.47l-0.757,1.181c-0.327-0.134-0.659-0.271-0.995-0.411 C26.358,9.62,26.566,9.045,26.773,8.506 M26.186,5.534c-0.185,0-0.367,0.1-0.452,0.285c-0.784,1.701-1.449,3.597-2.055,5.56 c0.232,0.097,0.464,0.194,0.695,0.29c1.101,0.459,2.159,0.9,3.178,1.306c0.06,0.024,0.121,0.035,0.182,0.035 c0.166,0,0.326-0.085,0.421-0.233l2.133-3.327c0.135-0.21,0.094-0.488-0.096-0.65l-3.676-3.143 C26.42,5.573,26.302,5.534,26.186,5.534L26.186,5.534z"/></g><g><path fill="#5dbc9d" d="M23.742,14.728c0.017,0.007,0.532,0.221,0.778,0.321c-0.34,0.15-0.675,0.311-1.004,0.48 L23.742,14.728z"/><path fill="#8d6c9f" d="M23.446,13.561c-0.316,0-0.515,0.357-0.652,0.84c-0.155,0.55-0.338,1.201-0.46,1.636 c-0.074,0.267-0.148,0.531-0.222,0.792c-0.063,0.223,0.127,0.408,0.338,0.408c0.065,0,0.133-0.018,0.195-0.057 c1.058-0.67,2.192-1.228,3.387-1.662c0.428-0.155,0.44-0.754,0.018-0.925c-0.616-0.249-1.244-0.507-1.888-0.774 c-0.087-0.036-0.309-0.138-0.535-0.223C23.563,13.572,23.503,13.561,23.446,13.561L23.446,13.561z"/></g></g></svg>